<mxfile host="app.diagrams.net" modified="2021-11-13T10:25:15.860Z" agent="5.0 (Windows NT 10.0; Win64; x64) AppleWebKit/537.36 (KHTML, like Gecko) Chrome/95.0.4638.69 Safari/537.36" etag="IegQXwxNJRe-CNDOyqAx" version="15.7.3" type="github">
  <diagram id="G0AHzD5-lxsH7NFHiDNB" name="Page-1">
    <mxGraphModel dx="1102" dy="614" grid="1" gridSize="10" guides="1" tooltips="1" connect="1" arrows="1" fold="1" page="1" pageScale="1" pageWidth="827" pageHeight="1169" math="0" shadow="0">
      <root>
        <mxCell id="0" />
        <mxCell id="1" parent="0" />
        <mxCell id="V6gjIE8QdaBLqDhYkExu-1" value="Departament" style="rounded=0;whiteSpace=wrap;html=1;" vertex="1" parent="1">
          <mxGeometry x="514" y="210" width="80" height="30" as="geometry" />
        </mxCell>
        <mxCell id="V6gjIE8QdaBLqDhYkExu-2" value="lucreaza" style="rhombus;whiteSpace=wrap;html=1;" vertex="1" parent="1">
          <mxGeometry x="810" y="197.5" width="110" height="50" as="geometry" />
        </mxCell>
        <mxCell id="V6gjIE8QdaBLqDhYkExu-3" value="Lucratori" style="rounded=0;whiteSpace=wrap;html=1;" vertex="1" parent="1">
          <mxGeometry x="1170" y="210" width="100" height="25" as="geometry" />
        </mxCell>
        <mxCell id="V6gjIE8QdaBLqDhYkExu-9" value="" style="edgeStyle=entityRelationEdgeStyle;fontSize=12;html=1;endArrow=ERmandOne;startArrow=ERmandOne;rounded=0;exitX=1;exitY=0.5;exitDx=0;exitDy=0;entryX=0;entryY=0.5;entryDx=0;entryDy=0;" edge="1" parent="1" source="V6gjIE8QdaBLqDhYkExu-2" target="V6gjIE8QdaBLqDhYkExu-3">
          <mxGeometry width="100" height="100" relative="1" as="geometry">
            <mxPoint x="894" y="325" as="sourcePoint" />
            <mxPoint x="1150" y="225" as="targetPoint" />
          </mxGeometry>
        </mxCell>
        <mxCell id="V6gjIE8QdaBLqDhYkExu-11" value="" style="edgeStyle=entityRelationEdgeStyle;fontSize=12;html=1;endArrow=ERoneToMany;rounded=0;exitX=1;exitY=0.5;exitDx=0;exitDy=0;entryX=0;entryY=0.5;entryDx=0;entryDy=0;" edge="1" parent="1" source="V6gjIE8QdaBLqDhYkExu-1" target="V6gjIE8QdaBLqDhYkExu-2">
          <mxGeometry width="100" height="100" relative="1" as="geometry">
            <mxPoint x="794" y="485" as="sourcePoint" />
            <mxPoint x="894" y="385" as="targetPoint" />
          </mxGeometry>
        </mxCell>
        <mxCell id="V6gjIE8QdaBLqDhYkExu-12" value="ID_departament" style="ellipse;whiteSpace=wrap;html=1;align=center;fontStyle=4;fillColor=#ffe6cc;strokeColor=#d79b00;" vertex="1" parent="1">
          <mxGeometry x="450" y="90" width="100" height="40" as="geometry" />
        </mxCell>
        <mxCell id="V6gjIE8QdaBLqDhYkExu-13" value="Nume_dep" style="ellipse;whiteSpace=wrap;html=1;align=center;" vertex="1" parent="1">
          <mxGeometry x="610" y="90" width="100" height="40" as="geometry" />
        </mxCell>
        <mxCell id="V6gjIE8QdaBLqDhYkExu-14" value="NR_angajati" style="ellipse;whiteSpace=wrap;html=1;align=center;" vertex="1" parent="1">
          <mxGeometry x="414" y="280" width="100" height="40" as="geometry" />
        </mxCell>
        <mxCell id="V6gjIE8QdaBLqDhYkExu-20" style="edgeStyle=orthogonalEdgeStyle;rounded=0;orthogonalLoop=1;jettySize=auto;html=1;" edge="1" parent="1" source="V6gjIE8QdaBLqDhYkExu-15">
          <mxGeometry relative="1" as="geometry">
            <mxPoint x="567" y="240" as="targetPoint" />
          </mxGeometry>
        </mxCell>
        <mxCell id="V6gjIE8QdaBLqDhYkExu-15" value="Telefon" style="ellipse;whiteSpace=wrap;html=1;align=center;" vertex="1" parent="1">
          <mxGeometry x="560" y="280" width="100" height="40" as="geometry" />
        </mxCell>
        <mxCell id="V6gjIE8QdaBLqDhYkExu-17" value="" style="endArrow=classic;html=1;rounded=0;exitX=0.5;exitY=0;exitDx=0;exitDy=0;entryX=0.5;entryY=1;entryDx=0;entryDy=0;" edge="1" parent="1" source="V6gjIE8QdaBLqDhYkExu-14" target="V6gjIE8QdaBLqDhYkExu-1">
          <mxGeometry width="50" height="50" relative="1" as="geometry">
            <mxPoint x="780" y="310" as="sourcePoint" />
            <mxPoint x="830" y="260" as="targetPoint" />
            <Array as="points">
              <mxPoint x="464" y="260" />
              <mxPoint x="554" y="260" />
            </Array>
          </mxGeometry>
        </mxCell>
        <mxCell id="V6gjIE8QdaBLqDhYkExu-18" value="" style="endArrow=classic;html=1;rounded=0;exitX=0.5;exitY=1;exitDx=0;exitDy=0;entryX=0.25;entryY=0;entryDx=0;entryDy=0;" edge="1" parent="1" source="V6gjIE8QdaBLqDhYkExu-12" target="V6gjIE8QdaBLqDhYkExu-1">
          <mxGeometry width="50" height="50" relative="1" as="geometry">
            <mxPoint x="780" y="310" as="sourcePoint" />
            <mxPoint x="830" y="260" as="targetPoint" />
          </mxGeometry>
        </mxCell>
        <mxCell id="V6gjIE8QdaBLqDhYkExu-19" value="" style="endArrow=classic;html=1;rounded=0;exitX=0.5;exitY=1;exitDx=0;exitDy=0;entryX=0.5;entryY=0;entryDx=0;entryDy=0;" edge="1" parent="1" source="V6gjIE8QdaBLqDhYkExu-13" target="V6gjIE8QdaBLqDhYkExu-1">
          <mxGeometry width="50" height="50" relative="1" as="geometry">
            <mxPoint x="780" y="310" as="sourcePoint" />
            <mxPoint x="830" y="260" as="targetPoint" />
          </mxGeometry>
        </mxCell>
        <mxCell id="V6gjIE8QdaBLqDhYkExu-22" style="edgeStyle=orthogonalEdgeStyle;rounded=0;orthogonalLoop=1;jettySize=auto;html=1;entryX=0.5;entryY=1;entryDx=0;entryDy=0;" edge="1" parent="1" source="V6gjIE8QdaBLqDhYkExu-21" target="V6gjIE8QdaBLqDhYkExu-1">
          <mxGeometry relative="1" as="geometry" />
        </mxCell>
        <mxCell id="V6gjIE8QdaBLqDhYkExu-21" value="Adresa" style="ellipse;whiteSpace=wrap;html=1;align=center;" vertex="1" parent="1">
          <mxGeometry x="490" y="340" width="100" height="40" as="geometry" />
        </mxCell>
        <mxCell id="V6gjIE8QdaBLqDhYkExu-39" style="edgeStyle=orthogonalEdgeStyle;rounded=0;orthogonalLoop=1;jettySize=auto;html=1;entryX=1;entryY=0.5;entryDx=0;entryDy=0;" edge="1" parent="1" source="V6gjIE8QdaBLqDhYkExu-23" target="V6gjIE8QdaBLqDhYkExu-3">
          <mxGeometry relative="1" as="geometry" />
        </mxCell>
        <mxCell id="V6gjIE8QdaBLqDhYkExu-23" value="Prenume" style="ellipse;whiteSpace=wrap;html=1;align=center;" vertex="1" parent="1">
          <mxGeometry x="1326" y="190" width="100" height="40" as="geometry" />
        </mxCell>
        <mxCell id="V6gjIE8QdaBLqDhYkExu-41" style="edgeStyle=orthogonalEdgeStyle;rounded=0;orthogonalLoop=1;jettySize=auto;html=1;" edge="1" parent="1" source="V6gjIE8QdaBLqDhYkExu-24" target="V6gjIE8QdaBLqDhYkExu-3">
          <mxGeometry relative="1" as="geometry" />
        </mxCell>
        <mxCell id="V6gjIE8QdaBLqDhYkExu-24" value="Telefon" style="ellipse;whiteSpace=wrap;html=1;align=center;" vertex="1" parent="1">
          <mxGeometry x="1106" y="270" width="100" height="40" as="geometry" />
        </mxCell>
        <mxCell id="V6gjIE8QdaBLqDhYkExu-33" style="edgeStyle=orthogonalEdgeStyle;rounded=0;orthogonalLoop=1;jettySize=auto;html=1;entryX=0.58;entryY=-0.047;entryDx=0;entryDy=0;entryPerimeter=0;" edge="1" parent="1" source="V6gjIE8QdaBLqDhYkExu-26" target="V6gjIE8QdaBLqDhYkExu-3">
          <mxGeometry relative="1" as="geometry" />
        </mxCell>
        <mxCell id="V6gjIE8QdaBLqDhYkExu-26" value="Nume" style="ellipse;whiteSpace=wrap;html=1;align=center;" vertex="1" parent="1">
          <mxGeometry x="1236" y="60" width="100" height="40" as="geometry" />
        </mxCell>
        <mxCell id="V6gjIE8QdaBLqDhYkExu-34" style="edgeStyle=orthogonalEdgeStyle;rounded=0;orthogonalLoop=1;jettySize=auto;html=1;entryX=0.5;entryY=0;entryDx=0;entryDy=0;" edge="1" parent="1" source="V6gjIE8QdaBLqDhYkExu-27" target="V6gjIE8QdaBLqDhYkExu-3">
          <mxGeometry relative="1" as="geometry" />
        </mxCell>
        <mxCell id="V6gjIE8QdaBLqDhYkExu-27" value="ID Lucrator" style="ellipse;whiteSpace=wrap;html=1;align=center;fontStyle=4;" vertex="1" parent="1">
          <mxGeometry x="1126" y="60" width="100" height="40" as="geometry" />
        </mxCell>
        <mxCell id="V6gjIE8QdaBLqDhYkExu-40" style="edgeStyle=orthogonalEdgeStyle;rounded=0;orthogonalLoop=1;jettySize=auto;html=1;entryX=1;entryY=0.5;entryDx=0;entryDy=0;" edge="1" parent="1" source="V6gjIE8QdaBLqDhYkExu-28" target="V6gjIE8QdaBLqDhYkExu-3">
          <mxGeometry relative="1" as="geometry" />
        </mxCell>
        <mxCell id="V6gjIE8QdaBLqDhYkExu-28" value="Adresa" style="ellipse;whiteSpace=wrap;html=1;align=center;" vertex="1" parent="1">
          <mxGeometry x="1317" y="260" width="100" height="40" as="geometry" />
        </mxCell>
        <mxCell id="V6gjIE8QdaBLqDhYkExu-36" style="edgeStyle=orthogonalEdgeStyle;rounded=0;orthogonalLoop=1;jettySize=auto;html=1;entryX=1;entryY=0.5;entryDx=0;entryDy=0;" edge="1" parent="1" source="V6gjIE8QdaBLqDhYkExu-29" target="V6gjIE8QdaBLqDhYkExu-3">
          <mxGeometry relative="1" as="geometry" />
        </mxCell>
        <mxCell id="V6gjIE8QdaBLqDhYkExu-29" value="Functia" style="ellipse;whiteSpace=wrap;html=1;align=center;" vertex="1" parent="1">
          <mxGeometry x="1326" y="120" width="100" height="40" as="geometry" />
        </mxCell>
        <mxCell id="V6gjIE8QdaBLqDhYkExu-42" style="edgeStyle=orthogonalEdgeStyle;rounded=0;orthogonalLoop=1;jettySize=auto;html=1;entryX=0.5;entryY=1;entryDx=0;entryDy=0;" edge="1" parent="1" source="V6gjIE8QdaBLqDhYkExu-30" target="V6gjIE8QdaBLqDhYkExu-3">
          <mxGeometry relative="1" as="geometry">
            <Array as="points">
              <mxPoint x="1296" y="300" />
              <mxPoint x="1220" y="300" />
            </Array>
          </mxGeometry>
        </mxCell>
        <mxCell id="V6gjIE8QdaBLqDhYkExu-30" value="Data_nasterii" style="ellipse;whiteSpace=wrap;html=1;align=center;" vertex="1" parent="1">
          <mxGeometry x="1246" y="330" width="100" height="40" as="geometry" />
        </mxCell>
        <mxCell id="V6gjIE8QdaBLqDhYkExu-43" style="edgeStyle=orthogonalEdgeStyle;rounded=0;orthogonalLoop=1;jettySize=auto;html=1;entryX=0.75;entryY=1;entryDx=0;entryDy=0;" edge="1" parent="1" source="V6gjIE8QdaBLqDhYkExu-31" target="V6gjIE8QdaBLqDhYkExu-3">
          <mxGeometry relative="1" as="geometry">
            <Array as="points">
              <mxPoint x="1136" y="320" />
              <mxPoint x="1245" y="320" />
            </Array>
          </mxGeometry>
        </mxCell>
        <mxCell id="V6gjIE8QdaBLqDhYkExu-31" value="Data_angajare" style="ellipse;whiteSpace=wrap;html=1;align=center;" vertex="1" parent="1">
          <mxGeometry x="1086" y="330" width="100" height="40" as="geometry" />
        </mxCell>
        <mxCell id="V6gjIE8QdaBLqDhYkExu-35" style="edgeStyle=orthogonalEdgeStyle;rounded=0;orthogonalLoop=1;jettySize=auto;html=1;entryX=0.422;entryY=-0.113;entryDx=0;entryDy=0;entryPerimeter=0;" edge="1" parent="1" source="V6gjIE8QdaBLqDhYkExu-32" target="V6gjIE8QdaBLqDhYkExu-3">
          <mxGeometry relative="1" as="geometry" />
        </mxCell>
        <mxCell id="V6gjIE8QdaBLqDhYkExu-32" value="Studii" style="ellipse;whiteSpace=wrap;html=1;align=center;" vertex="1" parent="1">
          <mxGeometry x="1056" y="120" width="100" height="40" as="geometry" />
        </mxCell>
        <mxCell id="V6gjIE8QdaBLqDhYkExu-45" style="edgeStyle=orthogonalEdgeStyle;rounded=0;orthogonalLoop=1;jettySize=auto;html=1;" edge="1" parent="1" source="V6gjIE8QdaBLqDhYkExu-44" target="V6gjIE8QdaBLqDhYkExu-2">
          <mxGeometry relative="1" as="geometry" />
        </mxCell>
        <mxCell id="V6gjIE8QdaBLqDhYkExu-44" value="ID_departament" style="ellipse;whiteSpace=wrap;html=1;align=center;fontStyle=4;fillColor=#dae8fc;strokeColor=#6c8ebf;" vertex="1" parent="1">
          <mxGeometry x="750" y="110" width="100" height="40" as="geometry" />
        </mxCell>
        <mxCell id="V6gjIE8QdaBLqDhYkExu-47" style="edgeStyle=orthogonalEdgeStyle;rounded=0;orthogonalLoop=1;jettySize=auto;html=1;entryX=1;entryY=0;entryDx=0;entryDy=0;" edge="1" parent="1" source="V6gjIE8QdaBLqDhYkExu-46" target="V6gjIE8QdaBLqDhYkExu-2">
          <mxGeometry relative="1" as="geometry" />
        </mxCell>
        <mxCell id="V6gjIE8QdaBLqDhYkExu-46" value="ID Lucrator" style="ellipse;whiteSpace=wrap;html=1;align=center;fontStyle=4;fillColor=#dae8fc;strokeColor=#6c8ebf;" vertex="1" parent="1">
          <mxGeometry x="890" y="110" width="100" height="40" as="geometry" />
        </mxCell>
        <mxCell id="V6gjIE8QdaBLqDhYkExu-48" value="Departament" style="shape=table;startSize=30;container=1;collapsible=1;childLayout=tableLayout;fixedRows=1;rowLines=0;fontStyle=1;align=center;resizeLast=1;" vertex="1" parent="1">
          <mxGeometry x="410" y="400" width="180" height="180" as="geometry" />
        </mxCell>
        <mxCell id="V6gjIE8QdaBLqDhYkExu-49" value="" style="shape=partialRectangle;collapsible=0;dropTarget=0;pointerEvents=0;fillColor=none;top=0;left=0;bottom=1;right=0;points=[[0,0.5],[1,0.5]];portConstraint=eastwest;" vertex="1" parent="V6gjIE8QdaBLqDhYkExu-48">
          <mxGeometry y="30" width="180" height="30" as="geometry" />
        </mxCell>
        <mxCell id="V6gjIE8QdaBLqDhYkExu-50" value="PK" style="shape=partialRectangle;connectable=0;fillColor=none;top=0;left=0;bottom=0;right=0;fontStyle=1;overflow=hidden;" vertex="1" parent="V6gjIE8QdaBLqDhYkExu-49">
          <mxGeometry width="30" height="30" as="geometry">
            <mxRectangle width="30" height="30" as="alternateBounds" />
          </mxGeometry>
        </mxCell>
        <mxCell id="V6gjIE8QdaBLqDhYkExu-51" value="ID_departament" style="shape=partialRectangle;connectable=0;fillColor=none;top=0;left=0;bottom=0;right=0;align=left;spacingLeft=6;fontStyle=5;overflow=hidden;" vertex="1" parent="V6gjIE8QdaBLqDhYkExu-49">
          <mxGeometry x="30" width="150" height="30" as="geometry">
            <mxRectangle width="150" height="30" as="alternateBounds" />
          </mxGeometry>
        </mxCell>
        <mxCell id="V6gjIE8QdaBLqDhYkExu-52" value="" style="shape=partialRectangle;collapsible=0;dropTarget=0;pointerEvents=0;fillColor=none;top=0;left=0;bottom=0;right=0;points=[[0,0.5],[1,0.5]];portConstraint=eastwest;" vertex="1" parent="V6gjIE8QdaBLqDhYkExu-48">
          <mxGeometry y="60" width="180" height="30" as="geometry" />
        </mxCell>
        <mxCell id="V6gjIE8QdaBLqDhYkExu-53" value="" style="shape=partialRectangle;connectable=0;fillColor=none;top=0;left=0;bottom=0;right=0;editable=1;overflow=hidden;" vertex="1" parent="V6gjIE8QdaBLqDhYkExu-52">
          <mxGeometry width="30" height="30" as="geometry">
            <mxRectangle width="30" height="30" as="alternateBounds" />
          </mxGeometry>
        </mxCell>
        <mxCell id="V6gjIE8QdaBLqDhYkExu-54" value="Nume_departament" style="shape=partialRectangle;connectable=0;fillColor=none;top=0;left=0;bottom=0;right=0;align=left;spacingLeft=6;overflow=hidden;" vertex="1" parent="V6gjIE8QdaBLqDhYkExu-52">
          <mxGeometry x="30" width="150" height="30" as="geometry">
            <mxRectangle width="150" height="30" as="alternateBounds" />
          </mxGeometry>
        </mxCell>
        <mxCell id="V6gjIE8QdaBLqDhYkExu-55" value="" style="shape=partialRectangle;collapsible=0;dropTarget=0;pointerEvents=0;fillColor=none;top=0;left=0;bottom=0;right=0;points=[[0,0.5],[1,0.5]];portConstraint=eastwest;" vertex="1" parent="V6gjIE8QdaBLqDhYkExu-48">
          <mxGeometry y="90" width="180" height="30" as="geometry" />
        </mxCell>
        <mxCell id="V6gjIE8QdaBLqDhYkExu-56" value="" style="shape=partialRectangle;connectable=0;fillColor=none;top=0;left=0;bottom=0;right=0;editable=1;overflow=hidden;" vertex="1" parent="V6gjIE8QdaBLqDhYkExu-55">
          <mxGeometry width="30" height="30" as="geometry">
            <mxRectangle width="30" height="30" as="alternateBounds" />
          </mxGeometry>
        </mxCell>
        <mxCell id="V6gjIE8QdaBLqDhYkExu-57" value="NR_angajati" style="shape=partialRectangle;connectable=0;fillColor=none;top=0;left=0;bottom=0;right=0;align=left;spacingLeft=6;overflow=hidden;" vertex="1" parent="V6gjIE8QdaBLqDhYkExu-55">
          <mxGeometry x="30" width="150" height="30" as="geometry">
            <mxRectangle width="150" height="30" as="alternateBounds" />
          </mxGeometry>
        </mxCell>
        <mxCell id="V6gjIE8QdaBLqDhYkExu-58" value="" style="shape=partialRectangle;collapsible=0;dropTarget=0;pointerEvents=0;fillColor=none;top=0;left=0;bottom=0;right=0;points=[[0,0.5],[1,0.5]];portConstraint=eastwest;" vertex="1" parent="V6gjIE8QdaBLqDhYkExu-48">
          <mxGeometry y="120" width="180" height="30" as="geometry" />
        </mxCell>
        <mxCell id="V6gjIE8QdaBLqDhYkExu-59" value="" style="shape=partialRectangle;connectable=0;fillColor=none;top=0;left=0;bottom=0;right=0;editable=1;overflow=hidden;" vertex="1" parent="V6gjIE8QdaBLqDhYkExu-58">
          <mxGeometry width="30" height="30" as="geometry">
            <mxRectangle width="30" height="30" as="alternateBounds" />
          </mxGeometry>
        </mxCell>
        <mxCell id="V6gjIE8QdaBLqDhYkExu-60" value="Telefon" style="shape=partialRectangle;connectable=0;fillColor=none;top=0;left=0;bottom=0;right=0;align=left;spacingLeft=6;overflow=hidden;" vertex="1" parent="V6gjIE8QdaBLqDhYkExu-58">
          <mxGeometry x="30" width="150" height="30" as="geometry">
            <mxRectangle width="150" height="30" as="alternateBounds" />
          </mxGeometry>
        </mxCell>
        <mxCell id="V6gjIE8QdaBLqDhYkExu-61" value="Lucreaza" style="shape=table;startSize=30;container=1;collapsible=1;childLayout=tableLayout;fixedRows=1;rowLines=0;fontStyle=1;align=center;resizeLast=1;" vertex="1" parent="1">
          <mxGeometry x="740" y="390" width="180" height="140" as="geometry" />
        </mxCell>
        <mxCell id="V6gjIE8QdaBLqDhYkExu-62" value="" style="shape=partialRectangle;collapsible=0;dropTarget=0;pointerEvents=0;fillColor=none;top=0;left=0;bottom=0;right=0;points=[[0,0.5],[1,0.5]];portConstraint=eastwest;" vertex="1" parent="V6gjIE8QdaBLqDhYkExu-61">
          <mxGeometry y="30" width="180" height="30" as="geometry" />
        </mxCell>
        <mxCell id="V6gjIE8QdaBLqDhYkExu-63" value="PK,FK1" style="shape=partialRectangle;connectable=0;fillColor=none;top=0;left=0;bottom=0;right=0;fontStyle=1;overflow=hidden;" vertex="1" parent="V6gjIE8QdaBLqDhYkExu-62">
          <mxGeometry width="60" height="30" as="geometry">
            <mxRectangle width="60" height="30" as="alternateBounds" />
          </mxGeometry>
        </mxCell>
        <mxCell id="V6gjIE8QdaBLqDhYkExu-64" value="ID_departament" style="shape=partialRectangle;connectable=0;fillColor=none;top=0;left=0;bottom=0;right=0;align=left;spacingLeft=6;fontStyle=5;overflow=hidden;" vertex="1" parent="V6gjIE8QdaBLqDhYkExu-62">
          <mxGeometry x="60" width="120" height="30" as="geometry">
            <mxRectangle width="120" height="30" as="alternateBounds" />
          </mxGeometry>
        </mxCell>
        <mxCell id="V6gjIE8QdaBLqDhYkExu-65" value="" style="shape=partialRectangle;collapsible=0;dropTarget=0;pointerEvents=0;fillColor=none;top=0;left=0;bottom=1;right=0;points=[[0,0.5],[1,0.5]];portConstraint=eastwest;" vertex="1" parent="V6gjIE8QdaBLqDhYkExu-61">
          <mxGeometry y="60" width="180" height="30" as="geometry" />
        </mxCell>
        <mxCell id="V6gjIE8QdaBLqDhYkExu-66" value="PK,FK2" style="shape=partialRectangle;connectable=0;fillColor=none;top=0;left=0;bottom=0;right=0;fontStyle=1;overflow=hidden;" vertex="1" parent="V6gjIE8QdaBLqDhYkExu-65">
          <mxGeometry width="60" height="30" as="geometry">
            <mxRectangle width="60" height="30" as="alternateBounds" />
          </mxGeometry>
        </mxCell>
        <mxCell id="V6gjIE8QdaBLqDhYkExu-67" value="ID_lucratori" style="shape=partialRectangle;connectable=0;fillColor=none;top=0;left=0;bottom=0;right=0;align=left;spacingLeft=6;fontStyle=5;overflow=hidden;" vertex="1" parent="V6gjIE8QdaBLqDhYkExu-65">
          <mxGeometry x="60" width="120" height="30" as="geometry">
            <mxRectangle width="120" height="30" as="alternateBounds" />
          </mxGeometry>
        </mxCell>
        <mxCell id="V6gjIE8QdaBLqDhYkExu-68" value="" style="shape=partialRectangle;collapsible=0;dropTarget=0;pointerEvents=0;fillColor=none;top=0;left=0;bottom=0;right=0;points=[[0,0.5],[1,0.5]];portConstraint=eastwest;" vertex="1" parent="V6gjIE8QdaBLqDhYkExu-61">
          <mxGeometry y="90" width="180" height="30" as="geometry" />
        </mxCell>
        <mxCell id="V6gjIE8QdaBLqDhYkExu-69" value="" style="shape=partialRectangle;connectable=0;fillColor=none;top=0;left=0;bottom=0;right=0;editable=1;overflow=hidden;" vertex="1" parent="V6gjIE8QdaBLqDhYkExu-68">
          <mxGeometry width="60" height="30" as="geometry">
            <mxRectangle width="60" height="30" as="alternateBounds" />
          </mxGeometry>
        </mxCell>
        <mxCell id="V6gjIE8QdaBLqDhYkExu-70" value="" style="shape=partialRectangle;connectable=0;fillColor=none;top=0;left=0;bottom=0;right=0;align=left;spacingLeft=6;overflow=hidden;" vertex="1" parent="V6gjIE8QdaBLqDhYkExu-68">
          <mxGeometry x="60" width="120" height="30" as="geometry">
            <mxRectangle width="120" height="30" as="alternateBounds" />
          </mxGeometry>
        </mxCell>
        <mxCell id="V6gjIE8QdaBLqDhYkExu-71" value="" style="shape=partialRectangle;collapsible=0;dropTarget=0;pointerEvents=0;fillColor=none;top=0;left=0;bottom=0;right=0;points=[[0,0.5],[1,0.5]];portConstraint=eastwest;" vertex="1" parent="V6gjIE8QdaBLqDhYkExu-61">
          <mxGeometry y="120" width="180" height="20" as="geometry" />
        </mxCell>
        <mxCell id="V6gjIE8QdaBLqDhYkExu-72" value="" style="shape=partialRectangle;connectable=0;fillColor=none;top=0;left=0;bottom=0;right=0;editable=1;overflow=hidden;" vertex="1" parent="V6gjIE8QdaBLqDhYkExu-71">
          <mxGeometry width="60" height="20" as="geometry">
            <mxRectangle width="60" height="20" as="alternateBounds" />
          </mxGeometry>
        </mxCell>
        <mxCell id="V6gjIE8QdaBLqDhYkExu-73" value="" style="shape=partialRectangle;connectable=0;fillColor=none;top=0;left=0;bottom=0;right=0;align=left;spacingLeft=6;overflow=hidden;" vertex="1" parent="V6gjIE8QdaBLqDhYkExu-71">
          <mxGeometry x="60" width="120" height="20" as="geometry">
            <mxRectangle width="120" height="20" as="alternateBounds" />
          </mxGeometry>
        </mxCell>
        <mxCell id="V6gjIE8QdaBLqDhYkExu-74" value="Lucratori" style="shape=table;startSize=30;container=1;collapsible=1;childLayout=tableLayout;fixedRows=1;rowLines=0;fontStyle=1;align=center;resizeLast=1;" vertex="1" parent="1">
          <mxGeometry x="1026" y="390" width="180" height="300" as="geometry" />
        </mxCell>
        <mxCell id="V6gjIE8QdaBLqDhYkExu-75" value="" style="shape=partialRectangle;collapsible=0;dropTarget=0;pointerEvents=0;fillColor=none;top=0;left=0;bottom=1;right=0;points=[[0,0.5],[1,0.5]];portConstraint=eastwest;" vertex="1" parent="V6gjIE8QdaBLqDhYkExu-74">
          <mxGeometry y="30" width="180" height="30" as="geometry" />
        </mxCell>
        <mxCell id="V6gjIE8QdaBLqDhYkExu-76" value="PK" style="shape=partialRectangle;connectable=0;fillColor=none;top=0;left=0;bottom=0;right=0;fontStyle=1;overflow=hidden;" vertex="1" parent="V6gjIE8QdaBLqDhYkExu-75">
          <mxGeometry width="30" height="30" as="geometry">
            <mxRectangle width="30" height="30" as="alternateBounds" />
          </mxGeometry>
        </mxCell>
        <mxCell id="V6gjIE8QdaBLqDhYkExu-77" value="ID_lucratori" style="shape=partialRectangle;connectable=0;fillColor=none;top=0;left=0;bottom=0;right=0;align=left;spacingLeft=6;fontStyle=5;overflow=hidden;" vertex="1" parent="V6gjIE8QdaBLqDhYkExu-75">
          <mxGeometry x="30" width="150" height="30" as="geometry">
            <mxRectangle width="150" height="30" as="alternateBounds" />
          </mxGeometry>
        </mxCell>
        <mxCell id="V6gjIE8QdaBLqDhYkExu-78" value="" style="shape=partialRectangle;collapsible=0;dropTarget=0;pointerEvents=0;fillColor=none;top=0;left=0;bottom=0;right=0;points=[[0,0.5],[1,0.5]];portConstraint=eastwest;" vertex="1" parent="V6gjIE8QdaBLqDhYkExu-74">
          <mxGeometry y="60" width="180" height="30" as="geometry" />
        </mxCell>
        <mxCell id="V6gjIE8QdaBLqDhYkExu-79" value="" style="shape=partialRectangle;connectable=0;fillColor=none;top=0;left=0;bottom=0;right=0;editable=1;overflow=hidden;" vertex="1" parent="V6gjIE8QdaBLqDhYkExu-78">
          <mxGeometry width="30" height="30" as="geometry">
            <mxRectangle width="30" height="30" as="alternateBounds" />
          </mxGeometry>
        </mxCell>
        <mxCell id="V6gjIE8QdaBLqDhYkExu-80" value="Nume" style="shape=partialRectangle;connectable=0;fillColor=none;top=0;left=0;bottom=0;right=0;align=left;spacingLeft=6;overflow=hidden;" vertex="1" parent="V6gjIE8QdaBLqDhYkExu-78">
          <mxGeometry x="30" width="150" height="30" as="geometry">
            <mxRectangle width="150" height="30" as="alternateBounds" />
          </mxGeometry>
        </mxCell>
        <mxCell id="V6gjIE8QdaBLqDhYkExu-81" value="" style="shape=partialRectangle;collapsible=0;dropTarget=0;pointerEvents=0;fillColor=none;top=0;left=0;bottom=0;right=0;points=[[0,0.5],[1,0.5]];portConstraint=eastwest;" vertex="1" parent="V6gjIE8QdaBLqDhYkExu-74">
          <mxGeometry y="90" width="180" height="30" as="geometry" />
        </mxCell>
        <mxCell id="V6gjIE8QdaBLqDhYkExu-82" value="" style="shape=partialRectangle;connectable=0;fillColor=none;top=0;left=0;bottom=0;right=0;editable=1;overflow=hidden;" vertex="1" parent="V6gjIE8QdaBLqDhYkExu-81">
          <mxGeometry width="30" height="30" as="geometry">
            <mxRectangle width="30" height="30" as="alternateBounds" />
          </mxGeometry>
        </mxCell>
        <mxCell id="V6gjIE8QdaBLqDhYkExu-83" value="Prenume" style="shape=partialRectangle;connectable=0;fillColor=none;top=0;left=0;bottom=0;right=0;align=left;spacingLeft=6;overflow=hidden;" vertex="1" parent="V6gjIE8QdaBLqDhYkExu-81">
          <mxGeometry x="30" width="150" height="30" as="geometry">
            <mxRectangle width="150" height="30" as="alternateBounds" />
          </mxGeometry>
        </mxCell>
        <mxCell id="V6gjIE8QdaBLqDhYkExu-84" value="" style="shape=partialRectangle;collapsible=0;dropTarget=0;pointerEvents=0;fillColor=none;top=0;left=0;bottom=0;right=0;points=[[0,0.5],[1,0.5]];portConstraint=eastwest;" vertex="1" parent="V6gjIE8QdaBLqDhYkExu-74">
          <mxGeometry y="120" width="180" height="30" as="geometry" />
        </mxCell>
        <mxCell id="V6gjIE8QdaBLqDhYkExu-85" value="" style="shape=partialRectangle;connectable=0;fillColor=none;top=0;left=0;bottom=0;right=0;editable=1;overflow=hidden;" vertex="1" parent="V6gjIE8QdaBLqDhYkExu-84">
          <mxGeometry width="30" height="30" as="geometry">
            <mxRectangle width="30" height="30" as="alternateBounds" />
          </mxGeometry>
        </mxCell>
        <mxCell id="V6gjIE8QdaBLqDhYkExu-86" value="Studii" style="shape=partialRectangle;connectable=0;fillColor=none;top=0;left=0;bottom=0;right=0;align=left;spacingLeft=6;overflow=hidden;" vertex="1" parent="V6gjIE8QdaBLqDhYkExu-84">
          <mxGeometry x="30" width="150" height="30" as="geometry">
            <mxRectangle width="150" height="30" as="alternateBounds" />
          </mxGeometry>
        </mxCell>
        <mxCell id="V6gjIE8QdaBLqDhYkExu-87" value="Functia" style="shape=partialRectangle;connectable=0;fillColor=none;top=0;left=0;bottom=0;right=0;align=left;spacingLeft=6;overflow=hidden;" vertex="1" parent="1">
          <mxGeometry x="1056" y="540" width="150" height="30" as="geometry">
            <mxRectangle width="150" height="30" as="alternateBounds" />
          </mxGeometry>
        </mxCell>
        <mxCell id="V6gjIE8QdaBLqDhYkExu-88" value="Adresa" style="shape=partialRectangle;connectable=0;fillColor=none;top=0;left=0;bottom=0;right=0;align=left;spacingLeft=6;overflow=hidden;" vertex="1" parent="1">
          <mxGeometry x="1056" y="570" width="150" height="30" as="geometry">
            <mxRectangle width="150" height="30" as="alternateBounds" />
          </mxGeometry>
        </mxCell>
        <mxCell id="V6gjIE8QdaBLqDhYkExu-89" value="Adresa" style="shape=partialRectangle;connectable=0;fillColor=none;top=0;left=0;bottom=0;right=0;align=left;spacingLeft=6;overflow=hidden;" vertex="1" parent="1">
          <mxGeometry x="440" y="550" width="150" height="30" as="geometry">
            <mxRectangle width="150" height="30" as="alternateBounds" />
          </mxGeometry>
        </mxCell>
        <mxCell id="V6gjIE8QdaBLqDhYkExu-90" value="" style="edgeStyle=entityRelationEdgeStyle;fontSize=12;html=1;endArrow=ERoneToMany;rounded=0;exitX=1;exitY=0.5;exitDx=0;exitDy=0;entryX=0;entryY=0.5;entryDx=0;entryDy=0;" edge="1" parent="1" source="V6gjIE8QdaBLqDhYkExu-49" target="V6gjIE8QdaBLqDhYkExu-62">
          <mxGeometry width="100" height="100" relative="1" as="geometry">
            <mxPoint x="770" y="590" as="sourcePoint" />
            <mxPoint x="870" y="490" as="targetPoint" />
          </mxGeometry>
        </mxCell>
        <mxCell id="V6gjIE8QdaBLqDhYkExu-91" value="" style="edgeStyle=entityRelationEdgeStyle;fontSize=12;html=1;endArrow=ERmandOne;startArrow=ERmandOne;rounded=0;entryX=0;entryY=0.5;entryDx=0;entryDy=0;exitX=1;exitY=0.5;exitDx=0;exitDy=0;" edge="1" parent="1" source="V6gjIE8QdaBLqDhYkExu-65" target="V6gjIE8QdaBLqDhYkExu-75">
          <mxGeometry width="100" height="100" relative="1" as="geometry">
            <mxPoint x="770" y="590" as="sourcePoint" />
            <mxPoint x="870" y="490" as="targetPoint" />
          </mxGeometry>
        </mxCell>
        <mxCell id="V6gjIE8QdaBLqDhYkExu-92" value="Data_nasterii" style="shape=partialRectangle;connectable=0;fillColor=none;top=0;left=0;bottom=0;right=0;align=left;spacingLeft=6;overflow=hidden;" vertex="1" parent="1">
          <mxGeometry x="1056" y="600" width="150" height="30" as="geometry">
            <mxRectangle width="150" height="30" as="alternateBounds" />
          </mxGeometry>
        </mxCell>
        <mxCell id="V6gjIE8QdaBLqDhYkExu-93" value="Data_angajare" style="shape=partialRectangle;connectable=0;fillColor=none;top=0;left=0;bottom=0;right=0;align=left;spacingLeft=6;overflow=hidden;" vertex="1" parent="1">
          <mxGeometry x="1056" y="630" width="150" height="30" as="geometry">
            <mxRectangle width="150" height="30" as="alternateBounds" />
          </mxGeometry>
        </mxCell>
        <mxCell id="V6gjIE8QdaBLqDhYkExu-94" value="Telefon" style="shape=partialRectangle;connectable=0;fillColor=none;top=0;left=0;bottom=0;right=0;align=left;spacingLeft=6;overflow=hidden;" vertex="1" parent="1">
          <mxGeometry x="1056" y="660" width="150" height="30" as="geometry">
            <mxRectangle width="150" height="30" as="alternateBounds" />
          </mxGeometry>
        </mxCell>
      </root>
    </mxGraphModel>
  </diagram>
</mxfile>
